<?xml version="1.0" encoding="UTF-8" standalone="no"?>
<!-- Created with Inkscape (http://www.inkscape.org/) -->

<svg
   width="122.76328mm"
   height="53.562477mm"
   viewBox="0 0 122.76328 53.562477"
   version="1.1"
   id="svg1"
   inkscape:version="1.4 (86a8ad7, 2024-10-11)"
   sodipodi:docname="dibujo.svg"
   inkscape:export-filename="logo.png"
   inkscape:export-xdpi="96"
   inkscape:export-ydpi="96"
   xmlns:inkscape="http://www.inkscape.org/namespaces/inkscape"
   xmlns:sodipodi="http://sodipodi.sourceforge.net/DTD/sodipodi-0.dtd"
   xmlns="http://www.w3.org/2000/svg"
   xmlns:svg="http://www.w3.org/2000/svg">
  <sodipodi:namedview
     id="namedview1"
     pagecolor="#ffffff"
     bordercolor="#000000"
     borderopacity="0.25"
     inkscape:showpageshadow="2"
     inkscape:pageopacity="0.0"
     inkscape:pagecheckerboard="0"
     inkscape:deskcolor="#d1d1d1"
     inkscape:document-units="mm"
     inkscape:zoom="0.68862935"
     inkscape:cx="307.85792"
     inkscape:cy="561.25984"
     inkscape:window-width="1920"
     inkscape:window-height="991"
     inkscape:window-x="-9"
     inkscape:window-y="-9"
     inkscape:window-maximized="1"
     inkscape:current-layer="layer1">
    <inkscape:page
       x="0"
       y="0"
       width="122.76328"
       height="53.562477"
       id="page2"
       margin="0"
       bleed="0" />
  </sodipodi:namedview>
  <defs
     id="defs1">
    <clipPath
       clipPathUnits="userSpaceOnUse"
       id="clipPath123">
      <path
         id="path124"
         d="M -284.2018,615.4139 H 739.79818 v -800 H -284.2018 Z"
         style="stroke-width:0.999999" />
    </clipPath>
    <clipPath
       clipPathUnits="userSpaceOnUse"
       id="clipPath121">
      <path
         id="path123"
         d="M -165.3266,587.84561 H 858.67338 V -212.1544 H -165.3266 Z"
         style="stroke-width:0.999999" />
    </clipPath>
    <clipPath
       clipPathUnits="userSpaceOnUse"
       id="clipPath120">
      <path
         id="path121"
         d="M -173.0615,601.4581 H 850.93848 v -800 H -173.0615 Z"
         style="stroke-width:0.999999" />
    </clipPath>
    <clipPath
       clipPathUnits="userSpaceOnUse"
       id="clipPath119">
      <path
         id="path120"
         d="M -167.6097,560.0163 H 856.39028 v -800 H -167.6097 Z"
         style="stroke-width:0.999999" />
    </clipPath>
    <clipPath
       clipPathUnits="userSpaceOnUse"
       id="clipPath117">
      <path
         id="path119"
         d="M -164.0403,578.25251 H 859.95968 v -800 H -164.0403 Z"
         style="stroke-width:0.999999" />
    </clipPath>
    <clipPath
       clipPathUnits="userSpaceOnUse"
       id="clipPath116">
      <path
         id="path117"
         d="M -244.04031,536.4139 H 779.95967 V -263.58611 H -244.04031 Z"
         style="stroke-width:0.999999" />
    </clipPath>
    <clipPath
       clipPathUnits="userSpaceOnUse"
       id="clipPath115">
      <path
         id="path116"
         d="M -277.7626,564.8871 H 746.23738 v -800 H -277.7626 Z"
         style="stroke-width:0.999999" />
    </clipPath>
    <clipPath
       clipPathUnits="userSpaceOnUse"
       id="clipPath113">
      <path
         id="path115"
         d="M -277.7626,564.8871 H 746.23738 v -800 H -277.7626 Z"
         style="stroke-width:0.999999" />
    </clipPath>
    <clipPath
       clipPathUnits="userSpaceOnUse"
       id="clipPath112">
      <path
         id="path113"
         d="M -277.7626,576.8871 H 746.23738 v -800 H -277.7626 Z"
         style="stroke-width:0.999999" />
    </clipPath>
    <clipPath
       clipPathUnits="userSpaceOnUse"
       id="clipPath111">
      <path
         id="path112"
         d="M -277.7626,576.8871 H 746.23738 v -800 H -277.7626 Z"
         style="stroke-width:0.999999" />
    </clipPath>
    <clipPath
       clipPathUnits="userSpaceOnUse"
       id="clipPath109">
      <path
         id="path111"
         d="M -277.7626,587.88711 H 746.23738 V -212.1129 H -277.7626 Z"
         style="stroke-width:0.999999" />
    </clipPath>
    <clipPath
       clipPathUnits="userSpaceOnUse"
       id="clipPath108">
      <path
         id="path109"
         d="M -277.7626,587.88711 H 746.23738 V -212.1129 H -277.7626 Z"
         style="stroke-width:0.999999" />
    </clipPath>
    <clipPath
       clipPathUnits="userSpaceOnUse"
       id="clipPath107">
      <path
         id="path108"
         d="M -308.7626,576.8871 H 715.23737 v -800 H -308.7626 Z"
         style="stroke-width:0.999999" />
    </clipPath>
    <clipPath
       clipPathUnits="userSpaceOnUse"
       id="clipPath105">
      <path
         id="path107"
         d="M -299.7626,553.88711 H 724.23738 v -800 H -299.7626 Z"
         style="stroke-width:0.999999" />
    </clipPath>
    <clipPath
       clipPathUnits="userSpaceOnUse"
       id="clipPath104">
      <path
         id="path105"
         d="M -299.7626,596.88711 H 724.23738 V -203.1129 H -299.7626 Z"
         style="stroke-width:0.999999" />
    </clipPath>
    <clipPath
       clipPathUnits="userSpaceOnUse"
       id="clipPath103">
      <path
         id="path104"
         d="M -268.7074,603.24681 H 755.29258 V -196.7532 H -268.7074 Z"
         style="stroke-width:0.999999" />
    </clipPath>
    <clipPath
       clipPathUnits="userSpaceOnUse"
       id="clipPath101">
      <path
         id="path103"
         d="M -268.7074,603.24681 H 755.29258 V -196.7532 H -268.7074 Z"
         style="stroke-width:0.999999" />
    </clipPath>
    <clipPath
       clipPathUnits="userSpaceOnUse"
       id="clipPath100">
      <path
         id="path101"
         d="M -282.7626,576.8871 H 741.23738 v -800 H -282.7626 Z"
         style="stroke-width:0.999999" />
    </clipPath>
    <clipPath
       clipPathUnits="userSpaceOnUse"
       id="clipPath99">
      <path
         id="path100"
         d="M -283.7626,587.88711 H 740.23738 V -212.1129 H -283.7626 Z"
         style="stroke-width:0.999999" />
    </clipPath>
    <clipPath
       clipPathUnits="userSpaceOnUse"
       id="clipPath97">
      <path
         id="path99"
         d="M -301.7626,594.2671 H 722.23738 v -800 H -301.7626 Z"
         style="stroke-width:0.999999" />
    </clipPath>
    <clipPath
       clipPathUnits="userSpaceOnUse"
       id="clipPath96">
      <path
         id="path97"
         d="M -283.7626,564.8871 H 740.23738 v -800 H -283.7626 Z"
         style="stroke-width:0.999999" />
    </clipPath>
    <clipPath
       clipPathUnits="userSpaceOnUse"
       id="clipPath95">
      <path
         id="path96"
         d="M -301.7626,557.88711 H 722.23738 V -242.1129 H -301.7626 Z"
         style="stroke-width:0.999999" />
    </clipPath>
    <clipPath
       clipPathUnits="userSpaceOnUse"
       id="clipPath93">
      <path
         id="path95"
         d="M -244.8213,594.96171 H 779.17867 V -205.0383 H -244.8213 Z"
         style="stroke-width:0.999999" />
    </clipPath>
    <clipPath
       clipPathUnits="userSpaceOnUse"
       id="clipPath92">
      <path
         id="path93"
         d="M -243.9198,555.97351 H 780.08018 V -244.0265 H -243.9198 Z"
         style="stroke-width:0.999999" />
    </clipPath>
    <clipPath
       clipPathUnits="userSpaceOnUse"
       id="clipPath91">
      <path
         id="path92"
         d="M -243.1828,594.9307 H 780.81718 v -800 H -243.1828 Z"
         style="stroke-width:0.999999" />
    </clipPath>
    <clipPath
       clipPathUnits="userSpaceOnUse"
       id="clipPath89">
      <path
         id="path91"
         d="M -245.5583,556.00451 H 778.44168 V -243.9955 H -245.5583 Z"
         style="stroke-width:0.999999" />
    </clipPath>
    <clipPath
       clipPathUnits="userSpaceOnUse"
       id="clipPath88">
      <path
         id="path89"
         d="M -209.2892,584.88711 H 814.71078 V -215.1129 H -209.2892 Z"
         style="stroke-width:0.999999" />
    </clipPath>
    <clipPath
       clipPathUnits="userSpaceOnUse"
       id="clipPath87">
      <path
         id="path88"
         d="M -196.2892,605.88711 H 827.71078 V -194.1129 H -196.2892 Z"
         style="stroke-width:0.999999" />
    </clipPath>
    <clipPath
       clipPathUnits="userSpaceOnUse"
       id="clipPath85">
      <path
         id="path87"
         d="M -221.2892,605.88711 H 802.71078 V -194.1129 H -221.2892 Z"
         style="stroke-width:0.999999" />
    </clipPath>
    <clipPath
       clipPathUnits="userSpaceOnUse"
       id="clipPath84">
      <path
         id="path85"
         d="M -195.0392,601.5162 H 828.96078 V -198.48381 H -195.0392 Z"
         style="stroke-width:0.999999" />
    </clipPath>
    <clipPath
       clipPathUnits="userSpaceOnUse"
       id="clipPath83">
      <path
         id="path84"
         d="M -204.0723,591.72041 H 819.92768 V -208.2796 H -204.0723 Z"
         style="stroke-width:0.999999" />
    </clipPath>
    <clipPath
       clipPathUnits="userSpaceOnUse"
       id="clipPath81">
      <path
         id="path83"
         d="M -208.0392,588.2579 H 815.96078 V -211.74211 H -208.0392 Z"
         style="stroke-width:0.999999" />
    </clipPath>
    <clipPath
       clipPathUnits="userSpaceOnUse"
       id="clipPath80">
      <path
         id="path81"
         d="M -212.006,600.97871 H 811.99398 V -199.0213 H -212.006 Z"
         style="stroke-width:0.999999" />
    </clipPath>
    <clipPath
       clipPathUnits="userSpaceOnUse"
       id="clipPath79">
      <path
         id="path80"
         d="M -200.2392,605.88711 H 823.76078 V -194.1129 H -200.2392 Z"
         style="stroke-width:0.999999" />
    </clipPath>
    <clipPath
       clipPathUnits="userSpaceOnUse"
       id="clipPath77">
      <path
         id="path79"
         d="M -186.2892,581.88711 H 837.71078 V -218.1129 H -186.2892 Z"
         style="stroke-width:0.999999" />
    </clipPath>
    <clipPath
       clipPathUnits="userSpaceOnUse"
       id="clipPath76">
      <path
         id="path77"
         d="M -186.2892,548.88711 H 837.71078 V -251.1129 H -186.2892 Z"
         style="stroke-width:0.999999" />
    </clipPath>
    <clipPath
       clipPathUnits="userSpaceOnUse"
       id="clipPath75">
      <path
         id="path76"
         d="M -173.2892,565.8871 H 850.71078 V -234.11291 H -173.2892 Z"
         style="stroke-width:0.999999" />
    </clipPath>
    <clipPath
       clipPathUnits="userSpaceOnUse"
       id="clipPath73">
      <path
         id="path75"
         d="M -175.476,565.3871 H 848.52398 v -800 H -175.476 Z"
         style="stroke-width:0.999999" />
    </clipPath>
    <clipPath
       clipPathUnits="userSpaceOnUse"
       id="clipPath72">
      <path
         id="path73"
         d="M -183.8767,559.7889 H 840.12328 v -800 H -183.8767 Z"
         style="stroke-width:0.999999" />
    </clipPath>
    <clipPath
       clipPathUnits="userSpaceOnUse"
       id="clipPath71">
      <path
         id="path72"
         d="M -186.2892,580.3871 H 837.71078 v -800 H -186.2892 Z"
         style="stroke-width:0.999999" />
    </clipPath>
    <clipPath
       clipPathUnits="userSpaceOnUse"
       id="clipPath69">
      <path
         id="path71"
         d="M -188.533,562.5436 H 835.46698 v -800 H -188.533 Z"
         style="stroke-width:0.999999" />
    </clipPath>
    <clipPath
       clipPathUnits="userSpaceOnUse"
       id="clipPath68">
      <path
         id="path69"
         d="M -182.2892,581.88711 H 841.71078 V -218.1129 H -182.2892 Z"
         style="stroke-width:0.999999" />
    </clipPath>
    <clipPath
       clipPathUnits="userSpaceOnUse"
       id="clipPath67">
      <path
         id="path68"
         d="M -180.4574,575.9426 H 843.54258 v -800 H -180.4574 Z"
         style="stroke-width:0.999999" />
    </clipPath>
    <clipPath
       clipPathUnits="userSpaceOnUse"
       id="clipPath65">
      <path
         id="path67"
         d="M -210.0615,542.38711 H 813.93848 V -257.6129 H -210.0615 Z"
         style="stroke-width:0.999999" />
    </clipPath>
    <clipPath
       clipPathUnits="userSpaceOnUse"
       id="clipPath64">
      <path
         id="path65"
         d="M -210.0615,566.38711 H 813.93848 V -233.6129 H -210.0615 Z"
         style="stroke-width:0.999999" />
    </clipPath>
    <clipPath
       clipPathUnits="userSpaceOnUse"
       id="clipPath63">
      <path
         id="path64"
         d="M -203.2892,560.4371 H 820.71078 v -800 H -203.2892 Z"
         style="stroke-width:0.999999" />
    </clipPath>
    <clipPath
       clipPathUnits="userSpaceOnUse"
       id="clipPath61">
      <path
         id="path63"
         d="M -206.2142,560.88701 H 817.78578 V -239.113 H -206.2142 Z"
         style="stroke-width:0.999999" />
    </clipPath>
    <clipPath
       clipPathUnits="userSpaceOnUse"
       id="clipPath60">
      <path
         id="path61"
         d="M -209.2892,560.88701 H 814.71078 V -239.113 H -209.2892 Z"
         style="stroke-width:0.999999" />
    </clipPath>
  </defs>
  <g
     inkscape:label="Capa 1"
     inkscape:groupmode="layer"
     id="layer1"
     transform="translate(-41.160768,-149.23428)">
    <g
       id="g4"
       transform="translate(-64.93273,-2.305304)">
      <g
         transform="matrix(0.6297453,0,0,-0.65320097,203.13862,204.44887)"
         id="g20"
         clip-path="url(#clipPath123)">
        <path
           id="path22"
           style="fill:none;stroke:#666565;stroke-width:2;stroke-linecap:butt;stroke-linejoin:miter;stroke-miterlimit:10;stroke-dasharray:none;stroke-opacity:1"
           d="m 0,0 h -80.323 c -22.002,0 -39.838,17.836 -39.838,39.839 v 0.322 c 0,22.003 17.836,39.839 39.838,39.839 H 0 C 22.002,80 39.839,62.164 39.839,40.161 V 39.839 C 39.839,17.836 22.002,0 0,0 Z" />
      </g>
      <g
         transform="matrix(0.6297453,0,0,-0.65320097,128.27752,186.44122)"
         id="g24"
         clip-path="url(#clipPath121)">
        <path
           id="path26"
           style="fill:none;stroke:#666565;stroke-width:1.5;stroke-linecap:butt;stroke-linejoin:miter;stroke-miterlimit:10;stroke-dasharray:none;stroke-opacity:1"
           d="m 0,0 c -4.771,-1.377 -10.138,-2.067 -13.084,0.727 -4.771,4.523 0.805,14.381 -3.635,18.9 -2.247,2.287 -7.144,3.291 -18.173,-0.727" />
      </g>
      <g
         transform="matrix(0.6297453,0,0,-0.65320097,133.14856,195.33291)"
         id="g28"
         clip-path="url(#clipPath120)">
        <path
           id="path30"
           style="fill:none;stroke:#666565;stroke-width:1.5;stroke-linecap:butt;stroke-linejoin:miter;stroke-miterlimit:10;stroke-dasharray:none;stroke-opacity:1"
           d="m 0,0 c -2.637,-0.793 -6.083,-1.31 -9.45,0 -7.248,2.82 -8.991,12.107 -11.267,11.631 -2.911,-0.61 -0.23,-15.834 -4.725,-17.446 -2.766,-0.992 -6.765,3.706 -7.632,4.725 -3.929,4.615 -4.319,9.965 -4.362,11.994" />
      </g>
      <g
         transform="matrix(0.6297453,0,0,-0.65320097,129.71531,168.26309)"
         id="g32"
         clip-path="url(#clipPath119)">
        <path
           id="path34"
           style="fill:none;stroke:#666565;stroke-width:1.5;stroke-linecap:butt;stroke-linejoin:miter;stroke-miterlimit:10;stroke-dasharray:none;stroke-opacity:1"
           d="M 0,0 C -2.521,11.571 -4.496,13.824 -5.815,13.811 -7.669,13.793 -8.354,9.3 -13.811,2.544 c -2.404,-2.975 -3.642,-4.475 -5.452,-5.088 -6.197,-2.099 -13.99,6.55 -15.265,7.996" />
      </g>
      <g
         transform="matrix(0.6297453,0,0,-0.65320097,127.46749,180.17501)"
         id="g36"
         clip-path="url(#clipPath117)">
        <path
           id="path38"
           style="fill:none;stroke:#666565;stroke-width:1.5;stroke-linecap:butt;stroke-linejoin:miter;stroke-miterlimit:10;stroke-dasharray:none;stroke-opacity:1"
           d="m 0,0 c -0.355,0.716 -3.406,6.653 -8.977,7.228 -5.016,0.518 -9.093,-3.62 -10.54,-5.088 -3.805,-3.862 -3.763,-7.156 -6.179,-7.633 -1.513,-0.298 -3.898,0.527 -7.632,5.816" />
      </g>
      <g
         transform="matrix(0.6297453,0,0,-0.65320097,177.84711,152.84597)"
         id="g40"
         clip-path="url(#clipPath116)">
        <path
           id="path42"
           style="fill:none;stroke:#000000;stroke-width:1;stroke-linecap:butt;stroke-linejoin:miter;stroke-miterlimit:10;stroke-dasharray:none;stroke-opacity:1"
           d="M 0,0 V -80" />
      </g>
      <g
         transform="matrix(0.6297453,0,0,-0.65320097,199.08357,171.44471)"
         id="g44"
         clip-path="url(#clipPath115)">
        <path
           id="path46"
           style="fill:#666565;fill-opacity:1;fill-rule:nonzero;stroke:none"
           d="M 0,0 C 0,2.209 1.791,4 4,4 6.209,4 8,2.209 8,0 8,-2.209 6.209,-4 4,-4 1.791,-4 0,-2.209 0,0" />
      </g>
      <g
         transform="matrix(0.6297453,0,0,-0.65320097,199.08357,171.44471)"
         id="g48"
         clip-path="url(#clipPath113)">
        <path
           id="path50"
           style="fill:none;stroke:#666565;stroke-width:1;stroke-linecap:butt;stroke-linejoin:miter;stroke-miterlimit:10;stroke-dasharray:none;stroke-opacity:1"
           d="M 0,0 C 0,2.209 1.791,4 4,4 6.209,4 8,2.209 8,0 8,-2.209 6.209,-4 4,-4 1.791,-4 0,-2.209 0,0 Z" />
      </g>
      <g
         transform="matrix(0.6297453,0,0,-0.65320097,199.08357,179.28312)"
         id="g52"
         clip-path="url(#clipPath112)">
        <path
           id="path54"
           style="fill:#666565;fill-opacity:1;fill-rule:nonzero;stroke:none"
           d="M 0,0 C 0,2.209 1.791,4 4,4 6.209,4 8,2.209 8,0 8,-2.209 6.209,-4 4,-4 1.791,-4 0,-2.209 0,0" />
      </g>
      <g
         transform="matrix(0.6297453,0,0,-0.65320097,199.08357,179.28312)"
         id="g56"
         clip-path="url(#clipPath111)">
        <path
           id="path58"
           style="fill:none;stroke:#666565;stroke-width:1;stroke-linecap:butt;stroke-linejoin:miter;stroke-miterlimit:10;stroke-dasharray:none;stroke-opacity:1"
           d="M 0,0 C 0,2.209 1.791,4 4,4 6.209,4 8,2.209 8,0 8,-2.209 6.209,-4 4,-4 1.791,-4 0,-2.209 0,0 Z" />
      </g>
      <g
         transform="matrix(0.6297453,0,0,-0.65320097,199.08357,186.46834)"
         id="g60"
         clip-path="url(#clipPath109)">
        <path
           id="path62"
           style="fill:#666565;fill-opacity:1;fill-rule:nonzero;stroke:none"
           d="M 0,0 C 0,2.209 1.791,4 4,4 6.209,4 8,2.209 8,0 8,-2.209 6.209,-4 4,-4 1.791,-4 0,-2.209 0,0" />
      </g>
      <g
         transform="matrix(0.6297453,0,0,-0.65320097,199.08357,186.46834)"
         id="g64"
         clip-path="url(#clipPath108)">
        <path
           id="path66"
           style="fill:none;stroke:#666565;stroke-width:1;stroke-linecap:butt;stroke-linejoin:miter;stroke-miterlimit:10;stroke-dasharray:none;stroke-opacity:1"
           d="M 0,0 C 0,2.209 1.791,4 4,4 6.209,4 8,2.209 8,0 8,-2.209 6.209,-4 4,-4 1.791,-4 0,-2.209 0,0 Z" />
      </g>
      <g
         transform="matrix(0.6297453,0,0,-0.65320097,218.60569,179.28312)"
         id="g68"
         clip-path="url(#clipPath107)">
        <path
           id="path70"
           style="fill:none;stroke:#666565;stroke-width:2;stroke-linecap:butt;stroke-linejoin:miter;stroke-miterlimit:10;stroke-dasharray:none;stroke-opacity:1"
           d="M 0,0 C 0,2.209 1.791,4 4,4 6.209,4 8,2.209 8,0 8,-2.209 6.209,-4 4,-4 1.791,-4 0,-2.209 0,0 Z" />
      </g>
      <g
         transform="matrix(0.6297453,0,0,-0.65320097,212.93798,164.25949)"
         id="g72"
         clip-path="url(#clipPath105)">
        <path
           id="path74"
           style="fill:none;stroke:#666565;stroke-width:2;stroke-linecap:butt;stroke-linejoin:miter;stroke-miterlimit:10;stroke-dasharray:none;stroke-opacity:1"
           d="M 0,0 C 0,2.209 1.791,4 4,4 6.209,4 8,2.209 8,0 8,-2.209 6.209,-4 4,-4 1.791,-4 0,-2.209 0,0 Z" />
      </g>
      <g
         transform="matrix(0.6297453,0,0,-0.65320097,212.93798,192.34714)"
         id="g76"
         clip-path="url(#clipPath104)">
        <path
           id="path78"
           style="fill:none;stroke:#666565;stroke-width:2;stroke-linecap:butt;stroke-linejoin:miter;stroke-miterlimit:10;stroke-dasharray:none;stroke-opacity:1"
           d="M 0,0 C 0,2.209 1.791,4 4,4 6.209,4 8,2.209 8,0 8,-2.209 6.209,-4 4,-4 1.791,-4 0,-2.209 0,0 Z" />
      </g>
      <g
         transform="matrix(0.6297453,0,0,-0.65320097,193.3811,196.5013)"
         id="g80"
         clip-path="url(#clipPath103)">
        <path
           id="path82"
           style="fill:#666565;fill-opacity:1;fill-rule:nonzero;stroke:none"
           d="M 0,0 H -24.667 V 53.36 H 0 c 3.314,0 6,-2.687 6,-6 V 6 C 6,2.686 3.314,0 0,0" />
      </g>
      <g
         transform="matrix(0.6297453,0,0,-0.65320097,193.3811,196.5013)"
         id="g84"
         clip-path="url(#clipPath101)">
        <path
           id="path86"
           style="fill:none;stroke:#666565;stroke-width:1;stroke-linecap:butt;stroke-linejoin:miter;stroke-miterlimit:10;stroke-dasharray:none;stroke-opacity:1"
           d="M 0,0 H -24.667 V 53.36 H 0 c 3.314,0 6,-2.687 6,-6 V 6 C 6,2.686 3.314,0 0,0 Z" />
      </g>
      <g
         transform="matrix(0.6297453,0,0,-0.65320097,202.23231,179.28312)"
         id="g88"
         clip-path="url(#clipPath100)">
        <path
           id="path90"
           style="fill:none;stroke:#666565;stroke-width:2;stroke-linecap:butt;stroke-linejoin:miter;stroke-miterlimit:10;stroke-dasharray:none;stroke-opacity:1"
           d="M 0,0 H 26" />
      </g>
      <g
         transform="matrix(0.6297453,0,0,-0.65320097,202.86206,186.46834)"
         id="g92"
         clip-path="url(#clipPath99)">
        <path
           id="path94"
           style="fill:none;stroke:#666565;stroke-width:2;stroke-linecap:butt;stroke-linejoin:miter;stroke-miterlimit:10;stroke-dasharray:none;stroke-opacity:1"
           d="M 0,0 H 13" />
      </g>
      <g
         transform="matrix(0.6297453,0,0,-0.65320097,214.19745,190.63575)"
         id="g96"
         clip-path="url(#clipPath97)">
        <path
           id="path98"
           style="fill:none;stroke:#666565;stroke-width:2;stroke-linecap:butt;stroke-linejoin:miter;stroke-miterlimit:10;stroke-dasharray:none;stroke-opacity:1"
           d="M 0,0 -6,6.75" />
      </g>
      <g
         transform="matrix(0.6297453,0,0,-0.65320097,202.86206,171.44471)"
         id="g100"
         clip-path="url(#clipPath96)">
        <path
           id="path102"
           style="fill:none;stroke:#666565;stroke-width:2;stroke-linecap:butt;stroke-linejoin:miter;stroke-miterlimit:10;stroke-dasharray:none;stroke-opacity:1"
           d="M 0,0 H 13" />
      </g>
      <g
         transform="matrix(0.6297453,0,0,-0.65320097,214.19745,166.8723)"
         id="g104"
         clip-path="url(#clipPath95)">
        <path
           id="path106"
           style="fill:none;stroke:#666565;stroke-width:2;stroke-linecap:butt;stroke-linejoin:miter;stroke-miterlimit:10;stroke-dasharray:none;stroke-opacity:1"
           d="M 0,0 -6,-7.5" />
      </g>
      <g
         transform="matrix(0.6297453,0,0,-0.65320097,178.33896,191.08947)"
         id="g108"
         clip-path="url(#clipPath93)">
        <path
           id="path110"
           style="fill:none;stroke:#ffffff;stroke-width:1;stroke-linecap:butt;stroke-linejoin:miter;stroke-miterlimit:10;stroke-dasharray:none;stroke-opacity:1"
           d="m 0,0 c 1.333,0.031 3.291,-5.764 4.555,-5.513 1.3,0.259 0.881,6.366 2.088,6.837 1.228,0.48 5.057,-4.291 6.168,-3.614 1.121,0.684 -1.367,6.277 -0.386,7.139 0.983,0.866 6.213,-2.312 7.032,-1.29 0.816,1.019 -3.426,5.428 -2.795,6.58 0.625,1.141 6.627,-0.061 7.05,1.188 0.415,1.227 -5.082,3.911 -4.883,5.221 0.192,1.274 6.244,2.203 6.213,3.535 -0.031,1.333 -6.119,1.981 -6.37,3.245 -0.259,1.3 5.107,4.235 4.636,5.442 -0.48,1.229 -6.42,-0.25 -7.097,0.861 -0.684,1.122 3.35,5.723 2.487,6.703 -0.866,0.983 -5.943,-2.434 -6.965,-1.615 -1.019,0.817 1.207,6.518 0.055,7.149 C 10.647,42.494 7.044,37.55 5.795,37.973 4.567,38.387 4.703,44.507 3.393,44.706 2.119,44.899 0.431,39.019 -0.901,38.988" />
      </g>
      <g
         transform="matrix(0.6297453,0,0,-0.65320097,177.77124,165.62235)"
         id="g112"
         clip-path="url(#clipPath92)">
        <path
           id="path114"
           style="fill:none;stroke:#666565;stroke-width:1;stroke-linecap:butt;stroke-linejoin:miter;stroke-miterlimit:10;stroke-dasharray:none;stroke-opacity:1"
           d="m 0,0 c -1.333,-0.031 -3.291,5.764 -4.555,5.513 -1.3,-0.259 -0.881,-6.366 -2.088,-6.837 -1.228,-0.48 -5.057,4.291 -6.168,3.614 -1.121,-0.684 1.367,-6.277 0.386,-7.139 -0.983,-0.866 -6.213,2.312 -7.032,1.29 -0.816,-1.019 3.426,-5.428 2.795,-6.58 -0.625,-1.141 -6.627,0.061 -7.05,-1.188 -0.415,-1.227 5.082,-3.911 4.883,-5.221 -0.192,-1.274 -6.244,-2.203 -6.213,-3.535 0.031,-1.333 6.119,-1.981 6.37,-3.245 0.259,-1.3 -5.107,-4.235 -4.636,-5.442 0.48,-1.229 6.42,0.25 7.097,-0.861 0.684,-1.122 -3.349,-5.723 -2.487,-6.703 0.866,-0.983 5.943,2.434 6.965,1.615 1.019,-0.817 -1.207,-6.518 -0.055,-7.149 1.141,-0.626 4.744,4.318 5.993,3.895 1.228,-0.414 1.092,-6.534 2.402,-6.733 1.274,-0.193 2.962,5.687 4.294,5.718" />
      </g>
      <g
         transform="matrix(0.6297453,0,0,-0.65320097,177.30711,191.06921)"
         id="g116"
         clip-path="url(#clipPath91)">
        <path
           id="path118"
           style="fill:none;stroke:#ffffff;stroke-width:1;stroke-linecap:butt;stroke-linejoin:miter;stroke-miterlimit:10;stroke-dasharray:none;stroke-opacity:1"
           d="m 0,0 c 1.331,-0.081 2.796,-6.02 4.076,-5.876 1.317,0.149 1.413,6.27 2.655,6.638 1.264,0.375 4.678,-4.701 5.842,-4.119 1.175,0.587 -0.834,6.369 0.215,7.146 1.052,0.78 5.997,-2.826 6.899,-1.877 0.899,0.947 -2.958,5.697 -2.233,6.792 0.72,1.084 6.599,-0.617 7.125,0.592 0.517,1.188 -4.735,4.324 -4.427,5.613 0.299,1.253 6.406,1.67 6.488,3.001 0.081,1.331 -5.931,2.487 -6.075,3.768 -0.149,1.317 5.445,3.791 5.076,5.034 -0.374,1.264 -6.418,0.29 -7,1.454 -0.587,1.175 3.819,5.42 3.041,6.47 -0.779,1.052 -6.125,-1.927 -7.075,-1.025 -0.947,0.899 1.75,6.394 0.655,7.12 -1.084,0.719 -5.09,-3.905 -6.299,-3.379 -1.188,0.516 -0.539,6.603 -1.828,6.911 -1.253,0.299 -3.429,-5.418 -4.76,-5.337" />
      </g>
      <g
         transform="matrix(0.6297453,0,0,-0.65320097,178.80306,165.64259)"
         id="g120"
         clip-path="url(#clipPath89)">
        <path
           id="path122"
           style="fill:none;stroke:#666565;stroke-width:1;stroke-linecap:butt;stroke-linejoin:miter;stroke-miterlimit:10;stroke-dasharray:none;stroke-opacity:1"
           d="m 0,0 c -1.331,0.081 -2.796,6.02 -4.076,5.876 -1.317,-0.149 -1.412,-6.27 -2.655,-6.638 -1.264,-0.375 -4.678,4.701 -5.842,4.119 -1.175,-0.587 0.834,-6.369 -0.215,-7.146 -1.052,-0.78 -5.997,2.826 -6.899,1.877 -0.899,-0.947 2.958,-5.697 2.233,-6.792 -0.72,-1.084 -6.599,0.617 -7.125,-0.592 -0.517,-1.188 4.735,-4.324 4.427,-5.613 -0.299,-1.253 -6.406,-1.67 -6.488,-3.001 -0.081,-1.331 5.931,-2.487 6.075,-3.768 0.149,-1.317 -5.445,-3.791 -5.076,-5.034 0.374,-1.264 6.418,-0.29 7,-1.454 0.587,-1.175 -3.819,-5.42 -3.041,-6.47 0.779,-1.052 6.125,1.927 7.075,1.025 0.947,-0.899 -1.75,-6.394 -0.655,-7.12 1.084,-0.719 5.09,3.905 6.299,3.379 1.188,-0.516 0.539,-6.603 1.828,-6.911 1.253,-0.299 3.429,5.418 4.76,5.337" />
      </g>
      <g
         transform="matrix(0.6297453,0,0,-0.65320097,155.96277,184.50873)"
         id="g124"
         clip-path="url(#clipPath88)">
        <path
           id="path126"
           style="fill:none;stroke:#666565;stroke-width:1.5;stroke-linecap:butt;stroke-linejoin:miter;stroke-miterlimit:10;stroke-dasharray:none;stroke-opacity:1"
           d="m 0,0 c 0,-2.209 -1.791,-4 -4,-4 -2.209,0 -4,1.791 -4,4 0,2.209 1.791,4 4,4 2.209,0 4,-1.791 4,-4 z" />
      </g>
      <g
         transform="matrix(0.6297453,0,0,-0.65320097,147.77607,198.22594)"
         id="g128"
         clip-path="url(#clipPath87)">
        <path
           id="path130"
           style="fill:none;stroke:#666565;stroke-width:1.5;stroke-linecap:butt;stroke-linejoin:miter;stroke-miterlimit:10;stroke-dasharray:none;stroke-opacity:1"
           d="m 0,0 c 0,-2.209 -1.791,-4 -4,-4 -2.209,0 -4,1.791 -4,4 0,2.209 1.791,4 4,4 2.209,0 4,-1.791 4,-4 z" />
      </g>
      <g
         transform="matrix(0.6297453,0,0,-0.65320097,163.51972,198.22594)"
         id="g132"
         clip-path="url(#clipPath85)">
        <path
           id="path134"
           style="fill:none;stroke:#666565;stroke-width:1.5;stroke-linecap:butt;stroke-linejoin:miter;stroke-miterlimit:10;stroke-dasharray:none;stroke-opacity:1"
           d="m 0,0 c 0,-2.209 -1.791,-4 -4,-4 -2.209,0 -4,1.791 -4,4 0,2.209 1.791,4 4,4 2.209,0 4,-1.791 4,-4 z" />
      </g>
      <g
         transform="matrix(0.6297453,0,0,-0.65320097,146.98891,195.37086)"
         id="g136"
         clip-path="url(#clipPath84)">
        <path
           id="path138"
           style="fill:none;stroke:#666565;stroke-width:1.5;stroke-linecap:butt;stroke-linejoin:miter;stroke-miterlimit:10;stroke-dasharray:none;stroke-opacity:1"
           d="M 0,0 6.275,10.869" />
      </g>
      <g
         transform="matrix(0.6297453,0,0,-0.65320097,152.67746,188.97225)"
         id="g140"
         clip-path="url(#clipPath83)">
        <path
           id="path142"
           style="fill:#666565;fill-opacity:1;fill-rule:nonzero;stroke:none"
           d="m 0,0 -0.45,-0.779 -5.066,2.925 0.45,0.779 z" />
      </g>
      <g
         transform="matrix(0.6297453,0,0,-0.65320097,155.17558,186.71052)"
         id="g144"
         clip-path="url(#clipPath81)">
        <path
           id="path146-6"
           style="fill:none;stroke:#666565;stroke-width:1.5;stroke-linecap:butt;stroke-linejoin:miter;stroke-miterlimit:10;stroke-dasharray:none;stroke-opacity:1"
           d="M 0,0 6.275,-10.869" />
      </g>
      <g
         transform="matrix(0.6297453,0,0,-0.65320097,157.67366,195.01979)"
         id="g148"
         clip-path="url(#clipPath80)">
        <path
           id="path150"
           style="fill:#666565;fill-opacity:1;fill-rule:nonzero;stroke:none"
           d="M 0,0 -0.45,0.779 4.616,3.704 5.066,2.925 Z" />
      </g>
      <g
         transform="matrix(0.6297453,0,0,-0.65320097,150.26358,198.22594)"
         id="g152"
         clip-path="url(#clipPath79)">
        <path
           id="path154"
           style="fill:none;stroke:#666565;stroke-width:1.5;stroke-linecap:butt;stroke-linejoin:miter;stroke-miterlimit:10;stroke-dasharray:none;stroke-opacity:1"
           d="M 0,0 H 12.55" />
      </g>
      <path
         id="path156"
         style="fill:#666565;fill-opacity:1;fill-rule:nonzero;stroke:none;stroke-width:0.641366"
         d="m 149.98006,200.13648 h 0.56677 v -3.8212 h -0.56677 z" />
      <g
         transform="matrix(0.6297453,0,0,-0.65320097,141.47864,182.54912)"
         id="g158"
         clip-path="url(#clipPath77)">
        <path
           id="path160"
           style="fill:none;stroke:#666565;stroke-width:1.5;stroke-linecap:butt;stroke-linejoin:miter;stroke-miterlimit:10;stroke-dasharray:none;stroke-opacity:1"
           d="m 0,0 c 2.209,0 4,-1.791 4,-4 0,-2.209 -1.791,-4 -4,-4 -2.209,0 -4,1.791 -4,4 0,2.209 1.791,4 4,4 z" />
      </g>
      <g
         transform="matrix(0.6297453,0,0,-0.65320097,141.47864,160.9935)"
         id="g162"
         clip-path="url(#clipPath76)">
        <path
           id="path164"
           style="fill:none;stroke:#666565;stroke-width:1.5;stroke-linecap:butt;stroke-linejoin:miter;stroke-miterlimit:10;stroke-dasharray:none;stroke-opacity:1"
           d="m 0,0 c 2.209,0 4,-1.791 4,-4 0,-2.209 -1.791,-4 -4,-4 -2.209,0 -4,1.791 -4,4 0,2.209 1.791,4 4,4 z" />
      </g>
      <g
         transform="matrix(0.6297453,0,0,-0.65320097,133.29194,172.09791)"
         id="g166"
         clip-path="url(#clipPath75)">
        <path
           id="path168"
           style="fill:none;stroke:#666565;stroke-width:1.5;stroke-linecap:butt;stroke-linejoin:miter;stroke-miterlimit:10;stroke-dasharray:none;stroke-opacity:1"
           d="m 0,0 c 2.209,0 4,-1.791 4,-4 0,-2.209 -1.791,-4 -4,-4 -2.209,0 -4,1.791 -4,4 0,2.209 1.791,4 4,4 z" />
      </g>
      <g
         transform="matrix(0.6297453,0,0,-0.65320097,134.66907,171.7713)"
         id="g170"
         clip-path="url(#clipPath73)">
        <path
           id="path172"
           style="fill:none;stroke:#666565;stroke-width:1.5;stroke-linecap:butt;stroke-linejoin:miter;stroke-miterlimit:10;stroke-dasharray:none;stroke-opacity:1"
           d="M 0,0 5.857,7.111" />
      </g>
      <g
         transform="matrix(0.6297453,0,0,-0.65320097,139.95938,168.11456)"
         id="g174"
         clip-path="url(#clipPath72)">
        <path
           id="path176"
           style="fill:#666565;fill-opacity:1;fill-rule:nonzero;stroke:none"
           d="m 0,0 -0.572,-0.695 -4.516,3.72 0.573,0.694 z" />
      </g>
      <g
         transform="matrix(0.6297453,0,0,-0.65320097,141.47864,181.56932)"
         id="g178"
         clip-path="url(#clipPath71)">
        <path
           id="path180"
           style="fill:none;stroke:#666565;stroke-width:1.5;stroke-linecap:butt;stroke-linejoin:miter;stroke-miterlimit:10;stroke-dasharray:none;stroke-opacity:1"
           d="M 0,0 V 18.5" />
      </g>
      <g
         transform="matrix(0.6297453,0,0,-0.65320097,142.89165,169.91392)"
         id="g182"
         clip-path="url(#clipPath69)">
        <path
           id="path184"
           style="fill:#666565;fill-opacity:1;fill-rule:nonzero;stroke:none"
           d="M 0,0 -2.244,3.886 -4.488,0 Z" />
      </g>
      <g
         transform="matrix(0.6297453,0,0,-0.65320097,138.95965,182.54912)"
         id="g186"
         clip-path="url(#clipPath68)">
        <path
           id="path188"
           style="fill:none;stroke:#666565;stroke-width:1.5;stroke-linecap:butt;stroke-linejoin:miter;stroke-miterlimit:10;stroke-dasharray:none;stroke-opacity:1"
           d="M 0,0 -4,5.07" />
      </g>
      <g
         transform="matrix(0.6297453,0,0,-0.65320097,137.80608,178.66617)"
         id="g190"
         clip-path="url(#clipPath67)">
        <path
           id="path192"
           style="fill:#666565;fill-opacity:1;fill-rule:nonzero;stroke:none"
           d="M 0,0 -4.168,1.661 -3.523,-2.78 Z" />
      </g>
      <g
         transform="matrix(0.6297453,0,0,-0.65320097,156.44914,156.74769)"
         id="g194"
         clip-path="url(#clipPath65)">
        <path
           id="path196"
           style="fill:none;stroke:#666565;stroke-width:1.5;stroke-linecap:butt;stroke-linejoin:miter;stroke-miterlimit:10;stroke-dasharray:none;stroke-opacity:1"
           d="m 0,0 c 0,-2.209 -1.791,-4 -4,-4 -2.209,0 -4,1.791 -4,4 0,2.209 1.791,4 4,4 2.209,0 4,-1.791 4,-4 z" />
      </g>
      <g
         transform="matrix(0.6297453,0,0,-0.65320097,156.44914,172.42451)"
         id="g198"
         clip-path="url(#clipPath64)">
        <path
           id="path200"
           style="fill:none;stroke:#666565;stroke-width:1.5;stroke-linecap:butt;stroke-linejoin:miter;stroke-miterlimit:10;stroke-dasharray:none;stroke-opacity:1"
           d="m 0,0 c 0,-2.209 -1.791,-4 -4,-4 -2.209,0 -4,1.791 -4,4 0,2.209 1.791,4 4,4 2.209,0 4,-1.791 4,-4 z" />
      </g>
      <g
         transform="matrix(0.6297453,0,0,-0.65320097,152.18431,168.53795)"
         id="g202"
         clip-path="url(#clipPath63)">
        <path
           id="path204"
           style="fill:none;stroke:#666565;stroke-width:1.5;stroke-linecap:butt;stroke-linejoin:miter;stroke-miterlimit:10;stroke-dasharray:none;stroke-opacity:1"
           d="M 0,0 V 12.55" />
      </g>
      <g
         transform="matrix(0.6297453,0,0,-0.65320097,154.02631,168.83184)"
         id="g206"
         clip-path="url(#clipPath61)">
        <path
           id="path208"
           style="fill:#666565;fill-opacity:1;fill-rule:nonzero;stroke:none"
           d="M 0,0 V 0.9 H -5.85 V 0 Z" />
      </g>
      <g
         transform="matrix(0.6297453,0,0,-0.65320097,155.96277,168.83184)"
         id="g210"
         clip-path="url(#clipPath60)">
        <path
           id="path212"
           style="fill:none;stroke:#666565;stroke-width:1.5;stroke-linecap:butt;stroke-linejoin:miter;stroke-miterlimit:10;stroke-dasharray:none;stroke-opacity:1"
           d="M 0,0 V 12.55" />
      </g>
      <path
         id="path214"
         style="fill:#666565;fill-opacity:1;fill-rule:nonzero;stroke:none;stroke-width:0.641366"
         d="m 157.80466,160.92812 h -3.68403 v -0.58789 h 3.68403 z" />
    </g>
  </g>
</svg>
